<?xml version="1.0" encoding="utf-8"?>
<!-- Generator: Adobe Illustrator 28.0.0, SVG Export Plug-In . SVG Version: 6.00 Build 0)  -->
<svg version="1.1" id="레이어_1" xmlns="http://www.w3.org/2000/svg" xmlns:xlink="http://www.w3.org/1999/xlink" x="0px"
	 y="0px" viewBox="0 0 15.5 16" style="enable-background:new 0 0 15.5 16;" xml:space="preserve">
<style type="text/css">
	.st0{fill:#FFFFFF;}
</style>
<path class="st0" d="M5.18,12.42c0,0.06-0.07,0.11-0.16,0.11c-0.1,0.01-0.18-0.04-0.18-0.11c0-0.06,0.07-0.11,0.16-0.11
	C5.1,12.3,5.18,12.35,5.18,12.42z M4.21,12.28c-0.02,0.06,0.04,0.13,0.13,0.15c0.08,0.03,0.18,0,0.19-0.06s-0.04-0.13-0.13-0.16
	C4.32,12.18,4.23,12.22,4.21,12.28z M5.59,12.22c-0.09,0.02-0.15,0.08-0.14,0.15c0.01,0.06,0.09,0.1,0.18,0.08
	c0.09-0.02,0.15-0.08,0.14-0.14C5.77,12.26,5.68,12.22,5.59,12.22z M7.65,0.25C3.32,0.25,0,3.54,0,7.87c0,3.47,2.18,6.43,5.3,7.48
	c0.4,0.07,0.54-0.18,0.54-0.38c0-0.19-0.01-1.26-0.01-1.92c0,0-2.19,0.47-2.65-0.93c0,0-0.36-0.91-0.87-1.14
	c0,0-0.72-0.49,0.05-0.48c0,0,0.78,0.06,1.21,0.81c0.68,1.21,1.83,0.86,2.28,0.65c0.07-0.5,0.28-0.85,0.5-1.05
	c-1.75-0.19-3.51-0.45-3.51-3.45c0-0.86,0.24-1.29,0.74-1.84c-0.08-0.2-0.35-1.04,0.08-2.12c0.65-0.2,2.16,0.84,2.16,0.84
	c0.62-0.18,1.3-0.27,1.96-0.27s1.34,0.09,1.96,0.27c0,0,1.5-1.05,2.16-0.84c0.43,1.08,0.16,1.92,0.08,2.12
	c0.5,0.55,0.81,0.98,0.81,1.84c0,3.02-1.84,3.26-3.59,3.45c0.29,0.25,0.53,0.72,0.53,1.45c0,1.05-0.01,2.36-0.01,2.61
	c0,0.2,0.14,0.45,0.54,0.38c3.12-1.04,5.24-4,5.24-7.47C15.5,3.54,11.98,0.25,7.65,0.25z M3.04,11.03c-0.04,0.03-0.03,0.1,0.02,0.16
	c0.05,0.05,0.12,0.07,0.16,0.03c0.04-0.03,0.03-0.1-0.02-0.16C3.15,11.01,3.08,10.99,3.04,11.03z M2.7,10.77
	c-0.02,0.04,0.01,0.09,0.07,0.12c0.05,0.03,0.11,0.02,0.13-0.02c0.02-0.04-0.01-0.09-0.07-0.12C2.77,10.73,2.72,10.74,2.7,10.77z
	 M3.71,11.89c-0.05,0.04-0.03,0.13,0.04,0.19c0.07,0.07,0.16,0.08,0.2,0.03c0.04-0.04,0.02-0.13-0.04-0.19
	C3.85,11.85,3.75,11.84,3.71,11.89z M3.36,11.43c-0.05,0.03-0.05,0.11,0,0.18s0.13,0.1,0.17,0.07c0.05-0.04,0.05-0.12,0-0.19
	C3.49,11.42,3.41,11.39,3.36,11.43z"/>
</svg>
