<?xml version="1.0" encoding="utf-8"?>
<!-- Generator: Adobe Illustrator 28.0.0, SVG Export Plug-In . SVG Version: 6.00 Build 0)  -->
<svg version="1.1" id="레이어_1" xmlns="http://www.w3.org/2000/svg" xmlns:xlink="http://www.w3.org/1999/xlink" x="0px"
	 y="0px" viewBox="0 0 14 16" style="enable-background:new 0 0 14 16;" xml:space="preserve">
<style type="text/css">
	.st0{fill:#FFFFFF;}
</style>
<path class="st0" d="M13,1H1C0.45,1,0,1.45,0,2.01v11.98C0,14.55,0.45,15,1,15h12c0.55,0,1-0.45,1-1.01V2.01C14,1.45,13.55,1,13,1z
	 M4.23,13H2.16V6.32h2.08L4.23,13L4.23,13z M3.19,5.41c-0.67,0-1.2-0.54-1.2-1.2S2.53,3,3.19,3c0.66,0,1.2,0.54,1.2,1.2
	C4.4,4.87,3.86,5.41,3.19,5.41z M12.01,13H9.93V9.75c0-0.77-0.02-1.77-1.08-1.77c-1.08,0-1.25,0.84-1.25,1.72V13H5.53V6.32h1.99
	v0.91h0.03c0.28-0.53,0.96-1.08,1.97-1.08c2.1,0,2.49,1.38,2.49,3.18V13z"/>
</svg>
